<?xml version="1.0" encoding="UTF-8" standalone="no"?>
<svg
   version="1.1"
   width="24"
   height="24"
   viewBox="0 0 24 24"
   id="svg69"
   sodipodi:docname="bed-double.svg"
   inkscape:version="1.1.1 (3bf5ae0d25, 2021-09-20)"
   xmlns:inkscape="http://www.inkscape.org/namespaces/inkscape"
   xmlns:sodipodi="http://sodipodi.sourceforge.net/DTD/sodipodi-0.dtd"
   xmlns="http://www.w3.org/2000/svg"
   xmlns:svg="http://www.w3.org/2000/svg">
  <defs
     id="defs73" />
  <sodipodi:namedview
     id="namedview71"
     pagecolor="#ffffff"
     bordercolor="#666666"
     borderopacity="1.0"
     inkscape:pageshadow="2"
     inkscape:pageopacity="0.0"
     inkscape:pagecheckerboard="0"
     showgrid="false"
     inkscape:zoom="22.627417"
     inkscape:cx="27.113126"
     inkscape:cy="9.3691648"
     inkscape:window-width="1920"
     inkscape:window-height="1017"
     inkscape:window-x="-8"
     inkscape:window-y="-8"
     inkscape:window-maximized="1"
     inkscape:current-layer="svg69" />
  <path
     d="M 6.5,12 A 2.5,2.5 0 0 0 4,14.5 2.5,2.5 0 0 0 6.5,17 2.5,2.5 0 0 0 9,14.5 2.5,2.5 0 0 0 6.5,12 Z"
     id="path81" />
  <path
     d="M 6.5,4 A 2.5,2.5 0 0 0 4,6.5 2.5,2.5 0 0 0 6.5,9 2.5,2.5 0 0 0 9,6.5 2.5,2.5 0 0 0 6.5,4"
     id="path77" />
  <path
     d="m 1,2 v 21 h 2 v -2 h 18 v 2 h 2 V 7 C 23,4.79 21.21,3 19,3 H 10 V 18 H 3 V 2 Z"
     id="path67"
     sodipodi:nodetypes="cccccccssccccc" />
</svg>
