<?xml version="1.0" encoding="UTF-8" standalone="no"?>
<svg
   version="1.1"
   width="24"
   height="24"
   viewBox="0 0 24 24"
   id="svg847"
   sodipodi:docname="bed-double.svg"
   inkscape:version="1.1.1 (3bf5ae0d25, 2021-09-20)"
   xmlns:inkscape="http://www.inkscape.org/namespaces/inkscape"
   xmlns:sodipodi="http://sodipodi.sourceforge.net/DTD/sodipodi-0.dtd"
   xmlns="http://www.w3.org/2000/svg"
   xmlns:svg="http://www.w3.org/2000/svg"
   xmlns:rdf="http://www.w3.org/1999/02/22-rdf-syntax-ns#"
   xmlns:cc="http://creativecommons.org/ns#"
   xmlns:dc="http://purl.org/dc/elements/1.1/">
  <metadata
     id="metadata853">
    <rdf:RDF>
      <cc:Work
         rdf:about="">
        <dc:format>image/svg+xml</dc:format>
        <dc:type
           rdf:resource="http://purl.org/dc/dcmitype/StillImage" />
      </cc:Work>
    </rdf:RDF>
  </metadata>
  <defs
     id="defs851">
    <inkscape:path-effect
       effect="fillet_chamfer"
       id="path-effect40"
       is_visible="true"
       lpeversion="1"
       satellites_param="F,0,0,1,0,0,0,1 @ F,0,0,1,0,2,0,1 @ F,0,0,1,0,2,0,1 @ F,0,0,1,0,2,0,1"
       unit="px"
       method="auto"
       mode="F"
       radius="2"
       chamfer_steps="1"
       flexible="false"
       use_knot_distance="true"
       apply_no_radius="true"
       apply_with_radius="true"
       only_selected="false"
       hide_knots="false" />
    <inkscape:path-effect
       effect="join_type"
       id="path-effect5181"
       is_visible="true"
       linecap_type="butt"
       line_width="1.9295524"
       linejoin_type="extrp_arc"
       miter_limit="100"
       attempt_force_join="true" />
  </defs>
  <sodipodi:namedview
     pagecolor="#ffffff"
     bordercolor="#666666"
     borderopacity="1"
     objecttolerance="10"
     gridtolerance="10"
     guidetolerance="10"
     inkscape:pageopacity="0"
     inkscape:pageshadow="2"
     inkscape:window-width="1920"
     inkscape:window-height="1017"
     id="namedview849"
     showgrid="false"
     inkscape:zoom="16"
     inkscape:cx="-3.40625"
     inkscape:cy="19.5625"
     inkscape:window-x="-8"
     inkscape:window-y="-8"
     inkscape:window-maximized="1"
     inkscape:current-layer="svg847"
     inkscape:pagecheckerboard="0" />
  <g
     id="g4625"
     transform="translate(-0.99255855,-15.226658)">
    <path
       inkscape:connector-curvature="0"
       id="path4613"
       d="m 19.535522,21.5 a 2.5,2.5 0 0 0 -2.5,-2.5 2.5,2.5 0 0 0 -2.5,2.5 2.5,2.5 0 0 0 2.5,2.5 2.5,2.5 0 0 0 2.5,-2.5" />
    <path
       inkscape:connector-curvature="0"
       id="path845"
       d="m 11.535522,21.5 a 2.5,2.5 0 0 0 -2.5,-2.5 2.5,2.5 0 0 0 -2.5,2.5 2.5,2.5 0 0 0 2.5,2.5 2.5,2.5 0 0 0 2.5,-2.5 z" />
  </g>
  <path
     id="rect4619"
     style="color:#000000;fill:#000000;-inkscape-stroke:none;paint-order:fill markers stroke"
     d="M 4.4863281 1 C 2.8488388 1 1.5 2.3488388 1.5 3.9863281 L 1.5 23 L 3.4726562 23 L 3.4726562 20.871094 L 20.527344 20.871094 L 20.527344 23 L 22.5 23 L 22.5 3.9863281 C 22.5 2.3488388 21.151161 1 19.513672 1 L 4.4863281 1 z M 4.4863281 2.9726562 L 19.513672 2.9726562 C 20.085319 2.9726562 20.527344 3.4146807 20.527344 3.9863281 L 20.527344 9.6660156 L 3.4726562 9.6660156 L 3.4726562 3.9863281 C 3.4726562 3.4146807 3.9146807 2.9726563 4.4863281 2.9726562 z " />
</svg>
